<svg id="Capa_1" enable-background="new 0 0 512 512" height="512" viewBox="0 0 512 512" width="512" xmlns="http://www.w3.org/2000/svg"><g><path d="m376.725 41.055c0-4.257.392-8.422 1.14-12.461.209-1.129-.54-2.215-1.661-2.459l-119.752-26.086c-.298-.065-.607-.065-.905 0l-119.751 26.086c-1.122.244-1.871 1.33-1.661 2.459.749 4.04 1.14 8.205 1.14 12.461 0 36.861-29.34 66.869-65.94 67.944-1.138.033-2.034.985-2.034 2.123v80.189c0 123.976 62.756 239.526 166.746 307.025l20.293 13.172c1.01.655 2.31.655 3.32 0l20.293-13.172c103.991-67.498 166.746-183.048 166.746-307.024v-80.189c0-1.138-.896-2.09-2.034-2.123-36.6-1.076-65.94-31.084-65.94-67.945z" fill="#dd5790"/><path d="m442.665 108.999c-36.6-1.075-65.94-31.084-65.94-67.944 0-4.257.392-8.422 1.14-12.461.209-1.129-.539-2.215-1.661-2.459l-40.614-8.847c-.048 1.049-.072 2.104-.072 3.164 0 23.463 11.888 44.15 29.969 56.365 23.459 15.848 38.005 41.866 38.005 70.177v23.715c0 123.976-62.756 239.526-166.746 307.024l-16.853 10.939c4.629 3.322 9.347 6.545 14.154 9.665l20.293 13.172c1.01.655 2.31.655 3.32 0l20.293-13.172c103.99-67.498 166.746-183.048 166.746-307.024v-80.189c0-1.139-.896-2.091-2.034-2.125z" fill="#da387d"/><g fill="#fff"><path d="m93.853 171.949c-.482 0-.874.391-.874.874v18.489c0 56.562 14.269 112.731 41.263 162.436 1.721 3.17 3.493 6.31 5.314 9.42l11.373-110.662-11.373-80.557z"/><path d="m186.134 171.949-10.64 95.609 10.64 157.656c14.23 15.042 29.827 28.794 46.577 41.029l8.43-190.02-8.43-104.274z"/><path d="m279.289 171.949-8.924 98.768 8.924 195.526c16.751-12.235 32.347-25.988 46.577-41.029l8.924-160.571-8.924-92.695h-46.577z"/><path d="m372.443 171.949-5.514 95.609 5.514 95.609c1.821-3.11 3.593-6.25 5.314-9.42 26.995-49.705 41.263-105.874 41.263-162.436v-18.489c0-.483-.391-.874-.874-.874h-45.703z"/></g><path d="m279.289 445.484v20.76c16.751-12.235 32.347-25.987 46.577-41.029v-29.109c-13.882 17.765-29.455 34.311-46.577 49.378z" fill="#f1f1f4"/><path d="m419.021 191.312v-18.489c0-.483-.391-.874-.874-.874h-14.658c-.173 51.151-11.026 100.844-31.046 146.292v44.927c1.821-3.11 3.593-6.25 5.314-9.42 26.995-49.705 41.264-105.874 41.264-162.436z" fill="#f1f1f4"/><path d="m254.501 138.126-45.375-45.376 45.375-45.375c.828-.828 2.17-.828 2.997 0l45.375 45.375-45.375 45.375c-.827.828-2.169.828-2.997.001z" fill="#f6e266"/><path d="m257.499 47.375c-.828-.828-2.17-.828-2.997 0l-6.228 6.228 4.785 4.784c10.444 10.444 10.444 27.377 0 37.821l-20.237 20.237 21.68 21.681c.828.828 2.17.828 2.997 0l45.375-45.375z" fill="#f1d333"/><path d="m328.408 118.284-25.534-25.534 25.534-25.534c.828-.828 2.17-.828 2.997 0l24.035 24.035c.828.828.828 2.17 0 2.997l-24.035 24.035c-.828.829-2.169.829-2.997.001z" fill="#f4dd45"/><path d="m180.595 118.284-24.035-24.035c-.828-.828-.828-2.17 0-2.997l24.035-24.035c.828-.828 2.17-.828 2.997 0l25.534 25.534-25.534 25.534c-.828.827-2.17.827-2.997-.001z" fill="#f4dd45"/><path d="m232.711 171.949v294.295c5.004 3.655 10.112 7.175 15.316 10.553l6.694 4.345c.777.505 1.779.505 2.556 0l6.694-4.345c5.205-3.378 10.312-6.898 15.316-10.553v-294.295z" fill="#9dc6fb"/><path d="m279.289 466.244v-20.76c-11.396 10.027-23.478 19.4-36.206 28.041 1.638 1.105 3.287 2.196 4.945 3.272l6.694 4.345c.777.505 1.779.505 2.556 0l6.694-4.345c5.205-3.378 10.312-6.898 15.317-10.553z" fill="#80b4fb"/><path d="m139.557 171.949v191.219c13.115 22.402 28.778 43.233 46.577 62.047v-253.266z" fill="#9dc6fb"/><path d="m325.866 171.949v253.266c17.8-18.814 33.463-39.645 46.577-62.047v-191.219z" fill="#9dc6fb"/><path d="m372.443 318.241c-12.223 27.749-27.864 53.915-46.577 77.865v29.109c17.8-18.814 33.463-39.645 46.577-62.047z" fill="#80b4fb"/></g></svg>
